<svg xmlns="http://www.w3.org/2000/svg" viewBox="87.96 236.91 1034.62 406.85"><path fill="#1a1815" d="m143.395 467.625 41.94 41.941h-9.464l-41.941-41.941 41.027-40.898h9.555Zm-14.329 23.879h-6.73v-64.606h6.73Zm116.297-33.039c-.117 9.086-3.027 16.848-8.73 23.27q-8.638 9.683-20.75 9.683c-8.106 0-15.04-3.238-20.797-9.727q-8.555-9.637-8.684-23.312v-31.567h6.555v31.567c.086 7.176 2.371 13.3 6.86 18.363q6.684 7.554 16.066 7.555 9.375 0 16.02-7.512 6.726-7.554 6.902-18.32v-31.652h6.558Zm52.125 26.094v6.73H247.95V426.9h6.727v57.66Zm52.129 0v6.73h-49.543V426.9h6.73v57.66Zm71.75 6.816h-7.988l-26.57-50.32-26.399 50.32h-8.207l30.395-57.875v-.043l4.254-7.86 3.906 7.423Zm76.387-47.066q-1.693-3.165-6.426-6.598-6.598-4.69-14.848-4.691c-6.863 0-12.722 2.304-17.585 6.906-1.938 1.824-3.2 3.285-3.778 4.383Zm-45.633 6.425q-1.648 4.173-1.648 8.25.304 10.64 7.816 18.192 7.552 7.51 18.191 7.773c5.586-.176 10.637-1.91 15.153-5.21 4.43-3.243 7.582-7.7 9.465-13.372h7.293q-3.3 11.854-11.985 18.54-8.767 6.814-19.926 6.816c-9.03 0-16.761-3.184-23.183-9.555q-9.556-9.635-9.555-23.184 0-13.5 9.555-23.14 9.635-9.55 23.183-9.551 11.328-.001 20.188 6.988 8.772 6.904 11.508 17.41Zm107.82 33.911c3.157-.028 6.207-.766 9.164-2.215q8.508-4.253 8.508-14.676 0-10.418-8.508-14.672-4.476-2.215-9.164-2.215h-18.84v33.778Zm-18.84-50.973v10.508h20.45q4.382 0 6.12-2.344.998-1.302 1.044-2.867-.001-3.17-3.172-4.516c-1.242-.52-2.59-.781-4.035-.781Zm31.301 13.547q12.07 4.862 12.07 20.535 0 14.59-12.242 20.492-6.208 3.042-12.289 3.043h-25.527v-64.476h27.094q4.858.002 8.726 2.43c3.586 2.171 5.383 5.413 5.383 9.726q.001 6.123-3.215 8.25m83.825 44.156h-7.989l-26.574-50.32-26.394 50.32h-8.207l30.394-57.875v-.043l4.254-7.86 3.906 7.423Zm33.367-64.43v32.172q-.002 13.242-9.336 22.703c-6.254 6.254-14.153 9.41-23.707 9.47v-7.08c7.613-.058 13.836-2.53 18.672-7.425 4.859-4.863 7.293-10.754 7.293-17.668v-32.172Zm23.476 40.461q4.689.002 9.207-2.21 8.463-4.217 8.465-14.676-.002-10.465-8.465-14.676c-2.984-1.477-6.05-2.215-9.207-2.215h-14.152v33.777Zm24.532-16.886q.001 12.329-8.899 18.582-5.56 3.908-11.074 4.558l18.191 17.63h-9.855l-17.715-17.196h-9.332v17.195h-6.73v-64.344h20.882q6.124-.001 12.29 3.04c8.16 3.96 12.242 10.808 12.242 20.535m71.753 40.855h-7.988l-26.57-50.32-26.399 50.32h-8.207l30.395-57.875v-.043l4.254-7.86 3.906 7.423Zm13.915-20.883 22.144 20.84h-9.941l-16.848-15.89-.043.042-2.215-2.043v17.848h-6.687v-64.434h6.687v41.075l38.598-41.075h9.379Zm91.25-36.82h-21.192v57.617h-6.73v-57.617H865.5v-6.727h49.02Zm71.75 57.703h-7.989l-26.57-50.32-26.399 50.32h-8.207L947.5 433.5v-.043l4.254-7.86 3.906 7.423Zm21.21-23.969q4.687.002 9.204-2.21 8.465-4.217 8.464-14.676.001-10.465-8.464-14.676c-2.98-1.477-6.051-2.215-9.204-2.215h-14.156v33.777Zm24.532-16.886q-.001 12.329-8.903 18.582-5.555 3.908-11.07 4.558l18.191 17.63h-9.855l-17.715-17.196h-9.336v17.195h-6.73v-64.344h20.886q6.122-.001 12.286 3.04c8.164 3.96 12.246 10.808 12.246 20.535m9.32 40.77h-6.73v-64.435h6.73Zm51.621-57.618h-21.191v57.617h-6.73v-57.617h-21.098v-6.727h49.02Zm-663.808 124.41c4.53 0 8.406-1.559 11.617-4.684q4.79-4.704 4.789-11.355c0-4.43-1.594-8.215-4.79-11.356-3.21-3.12-7.085-4.683-11.616-4.683q-6.797 0-11.618 4.683-4.788 4.711-4.789 11.356.001 6.651 4.79 11.355 4.82 4.686 11.617 4.684m16.406-4.238c-.176.281-.871 1.011-2.086 2.199q-5.942 5.808-14.32 5.809-8.38-.001-14.32-5.809-5.943-5.811-5.942-14c.02-5.457 2.008-10.125 5.969-13.996q5.94-5.81 14.32-5.809 8.38-.002 14.32 5.809c3.961 3.871 5.934 8.539 5.914 13.996v19.363h-3.855Zm106.012-1.977c-3.208 3.117-7.075 4.676-11.614 4.676-4.527 0-8.406-1.559-11.617-4.676-3.187-3.148-4.789-6.93-4.789-11.355 0-4.442 1.602-8.219 4.789-11.36 3.211-3.129 7.09-4.687 11.617-4.687 4.54 0 8.406 1.558 11.614 4.687 3.199 3.141 4.8 6.918 4.8 11.36 0 4.426-1.601 8.207-4.8 11.355m3.449-24.633c-.239-.25-.48-.488-.719-.73q-.465-.436-.93-.86c-3.527-3.085-7.676-4.738-12.426-4.925a26 26 0 0 0-.96-.024h-.09q-1.019-.001-2.008.102c-3.41.308-6.488 1.398-9.246 3.27-.02.019-.04.03-.051.038-.258.172-.508.34-.75.532a.2.2 0 0 0-.07.05c-.727.547-1.43 1.16-2.11 1.817q-.838.825-1.558 1.68c-.16.203-.309.39-.461.59-.207.261-.399.519-.578.788a18.3 18.3 0 0 0-3.14 7.93c-.028.238-.067.469-.09.707a20 20 0 0 0-.118 3.192c.16 4.066 1.457 7.687 3.906 10.843.18.22.36.45.543.672q.043.061.09.11c.168.199.328.379.508.57.172.187.34.367.531.559.11.12.23.242.348.359.082.082.16.148.242.219.148.152.309.3.469.441q.344.332.718.629.049.03.09.07.334.256.66.512c3.27 2.45 7.008 3.758 11.227 3.918.3.008.61.02.91.02.29 0 .57-.012.86-.02 4.226-.152 7.996-1.45 11.265-3.918q.343-.241.668-.512c.512-.41 1-.847 1.473-1.308.02-.02.039-.032.058-.051.13-.129.258-.258.38-.367.1-.102.199-.211.3-.313 3.258-3.52 5.258-8.187 5.258-13.312v-.082c0-5.098-1.73-9.489-5.2-13.196m-82.32 66.226q4.365 0 7.442-3.077t3.078-7.442c0-2.91-1.027-5.386-3.078-7.441q-3.076-3.076-7.442-3.078-4.359 0-7.441 3.078c-2.05 2.055-3.074 4.531-3.074 7.441q-.001 4.365 3.074 7.442 3.082 3.077 7.441 3.078m-11.027-33.86.883 1.34q.51.774 1.473 1.579 1.981 1.471 4.472 1.472h7.68q3.88 0 6.933 2.356 1.524 1.23 2.329 2.543l.804 1.34-1.93 1.175-1.308.801-.86-1.309c-.32-.52-.82-1.035-1.495-1.554q-1.927-1.471-4.446-1.473h-7.683q-3.879 0-6.903-2.355-1.58-1.231-2.383-2.54l-.804-1.367 1.93-1.152Zm11.055 9.047q5.888.001 10.094 4.204 4.2 4.177 4.171 10.09.001 5.917-4.199 10.09-4.176 4.204-10.094 4.202c-3.941 0-7.304-1.398-10.09-4.203q-4.202-4.171-4.203-10.09.03-5.911 4.204-10.09c2.8-2.8 6.175-4.203 10.117-4.203m-.348-10.195q6.802 0 11.617-4.793 4.792-4.815 4.79-11.617.002-6.797-4.79-11.613-4.815-4.793-11.617-4.793-6.796 0-11.617 4.793-4.789 4.816-4.79 11.613.002 6.801 4.79 11.617 4.821 4.793 11.617 4.793m16.168-28.695q4.12 5.114 4.094 12.285 0 8.38-5.942 14.32-5.94 5.942-14.32 5.942t-14.32-5.942q-5.942-5.94-5.942-14.32c.02-5.582 2.008-10.36 5.97-14.32q5.94-5.942 14.32-5.942 8.055.001 13.195 4.871c.82-1.37.32-3.515-1.5-6.422l3.402-1.527.988 2.223c1.016 2.265 1.239 4.605.668 7.011q-.294 1.206-.613 1.82m30.969-3.183a13.4 13.4 0 0 0-3.399-.43c-3.89 0-7.23 1.555-10.011 4.657-2.786 3.14-4.211 6.933-4.286 11.379v19.726h-3.773v-19.699c.074-5.57 1.856-10.316 5.356-14.242q5.268-5.942 12.687-5.942 1.762-.002 3.426.348Zm54.246-4.23h9.02v3.883h-9.02v35.625h-3.906v-35.625h-8.993v-3.883h9.02v-8.164h3.879Zm47.777 19.672q-.106 8.354-5.351 14.242-5.274 5.94-12.688 5.941-7.44.001-12.715-5.969-5.246-5.887-5.324-14.265v-19.649h3.774v19.649q.081 6.69 4.253 11.43 4.149 4.682 9.985 4.683 5.834-.001 10.012-4.66c2.78-3.14 4.21-6.93 4.28-11.375v-19.727h3.774Zm24.145-15.442a13.4 13.4 0 0 0-3.399-.43q-5.834.002-10.011 4.657-4.177 4.71-4.282 11.379v19.726h-3.773v-19.699c.07-5.57 1.851-10.316 5.351-14.242q5.272-5.942 12.688-5.942 1.766-.002 3.426.348Zm6.637 35.278h-3.88v-39.48h3.88Zm0-43.977h-3.88v-3.668h3.88Zm10.039 40.094h22.937v3.883h-30.3l23.5-35.52H655.23v-3.879h30.567Zm0 0"/><path fill="#1a1815" d="M708.16 513.848q.868.866.817 2.101 0 1.201-.844 2.074-.844.868-2.074.868c-.82 0-1.528-.29-2.114-.868q-.885-.873-.886-2.074c.039-.824.34-1.523.914-2.101a2.8 2.8 0 0 1 2.086-.871q1.23 0 2.101.87m-8.219 0q.871.867.817 2.102 0 1.201-.84 2.074a2.8 2.8 0 0 1-2.074.868q-1.235 0-2.117-.868-.884-.873-.883-2.074a3.08 3.08 0 0 1 .91-2.101q.855-.872 2.09-.871c.816 0 1.52.289 2.097.87m16.422 19.926q-.72-1.42-2.625-3.343-4.816-4.793-11.613-4.793c-4.531 0-8.406 1.597-11.617 4.793-1.27 1.28-2.14 2.398-2.625 3.343Zm-30.058 3.72c-.39 1.284-.59 2.804-.59 4.55q0 6.801 4.793 11.617c3.21 3.195 7.086 4.793 11.617 4.793q6.796 0 11.613-4.793 2.76-2.754 4.043-6.504h4.016q-1.576 5.462-5.352 9.207-5.94 5.942-14.32 5.942t-14.32-5.942q-5.942-5.94-5.942-14.32c.016-5.586 2.008-10.356 5.969-14.32q5.942-5.942 14.316-5.942 8.38 0 14.32 5.942 4.02 4.019 5.489 9.718Zm94.91 24.359h-3.746v-25.133q-.08-4.551-3.371-7.79-3.322-3.239-7.95-3.238-4.634 0-7.949 3.239-3.294 3.238-3.37 7.789v25.133h-3.778v-25.133q-.077-4.551-3.371-7.79t-7.95-3.238c-3.09 0-5.726 1.079-7.921 3.239q-3.323 3.238-3.375 7.789v25.133h-3.774v-25.133q.083-6.159 4.496-10.442 4.418-4.307 10.574-4.308 4.497 0 8.243 2.41 3.638 2.356 4.98 5.246c.875-1.926 2.531-3.676 4.977-5.246q3.749-2.41 8.218-2.41 6.206 0 10.625 4.308 4.418 4.366 4.442 10.52Zm-259.809 44.73v28.11h-2.761v-7.778h-18.047v7.777h-2.766v-28.109h2.766v17.59h18.047v-17.59Zm16.332 25.688c3.23 0 5.985-1.137 8.274-3.41q3.41-3.429 3.41-8.274c0-3.227-1.137-5.98-3.41-8.27-2.29-2.273-5.043-3.41-8.274-3.41-3.226 0-5.98 1.137-8.27 3.41-2.273 2.29-3.41 5.043-3.41 8.27q0 4.845 3.41 8.273 3.433 3.41 8.27 3.41m.02-26.105q5.964 0 10.199 4.23 4.23 4.232 4.211 10.192 0 5.97-4.23 10.2c-2.82 2.82-6.223 4.23-10.2 4.23-3.972 0-7.375-1.41-10.191-4.23q-4.235-4.23-4.235-10.2.022-5.96 4.25-10.191 4.231-4.23 10.196-4.23"/><path fill="#1a1815" d="M570.46 609.363h-9.296v25.328l-2.766.02v-25.348h-9.261v-2.761h21.324Zm23.481 17.551H577.59v-2.762h16.351Zm.075-17.531h-18.809v22.527h18.809v2.781h-21.649v-28.109h21.649Zm23.461 22.547v2.761h-21.555v-28.109h2.765v25.348Zm15.359-14.086a6.44 6.44 0 0 0-2.285 2.343 6.45 6.45 0 0 0-.86 3.258q0 2.783 1.946 4.727c1.297 1.297 2.863 1.945 4.707 1.945q2.743 0 4.707-1.945 1.945-1.944 1.945-4.727-.001-.761-.137-1.254h-2.324q-2.36-.001-3.715 1.868h-3.07l.727-1.106q2.132-3.337 6.058-3.336h1.926c1.434 0 2.656-.59 3.656-1.773l2.27 1.164a5.72 5.72 0 0 1-2.895 2.515q.206.82.207 1.922 0 3.91-2.742 6.653-2.726 2.763-6.613 2.761-3.869.002-6.594-2.761-2.747-2.743-2.746-6.653-.001-2.532 1.316-4.742 1.259-2.155 3.086-3.203-.417-.839-.418-2.152 0-2.25 1.563-3.832c1.043-1.055 2.304-1.582 3.793-1.582q2.21 0 3.793 1.582c1.05 1.054 1.582 2.332 1.582 3.832q0 .739-.344 1.754h-2.937q.592-1.126.593-1.754.001-1.108-.8-1.926-.762-.743-1.887-.742a2.67 2.67 0 0 0-1.887.742 2.74 2.74 0 0 0-.762 1.926q0 .058.035.246.251 1.925 2.536 2.633-2.058.72-3.43 1.617m37.676-8.098a3.02 3.02 0 0 0-2.192-.898q-1.278 0-2.152.898a2.95 2.95 0 0 0-.895 2.172q-.001 1.236.895 2.133c.457.484 1.309.761 2.555.84 1.242.074 2.343.324 3.297.742a9.84 9.84 0 0 1 4.687 3.66q1.868 2.611 1.867 5.773 0 4.174-3.011 7.11-3.012 2.971-7.223 2.972c-2.793 0-5.184-.972-7.164-2.918q-2.994-2.877-3.07-7.39h2.726q.075 3.352 2.266 5.469 2.192 2.114 5.242 2.113c2.07 0 3.832-.723 5.277-2.172 1.477-1.434 2.211-3.164 2.211-5.184q0-3.066-2.191-5.222-2.228-2.17-5.047-2.313c-1.883-.097-3.23-.511-4.043-1.25a2 2 0 0 1-.324-.285c-1.145-1.133-1.707-2.488-1.696-4.078q-.001-2.404 1.715-4.098c1.117-1.133 2.477-1.695 4.078-1.695q2.402-.002 4.137 1.695l1.047 1.047-2.344 1.774a2.9 2.9 0 0 0-.648-.895m12.73-.422v15.059h6.25c1.387-.016 2.738-.352 4.063-1.012 2.527-1.234 3.789-3.402 3.789-6.52 0-3.097-1.254-5.277-3.774-6.535q-1.998-.991-4.078-.992Zm6.25-2.742q2.672 0 5.356 1.313 5.337 2.612 5.336 8.957 0 6.368-5.336 8.957-2.685 1.295-5.356 1.296h-6.25v7.586h-2.762v-28.109Zm35.965 28.148h-3.09l-11.91-22.566-12.027 22.566h-3.008l13.281-25.289v-.02l1.754-3.28 1.64 3.129ZM96.418 501.879h1017.254v3.828H96.418"/><path fill="none" stroke="#110f0d" stroke-miterlimit="10" stroke-width="3.998" d="M677.66 317.746c0 38.781-31.437 70.219-70.222 70.219-38.782 0-70.22-31.438-70.22-70.219s31.438-70.223 70.22-70.223c38.785 0 70.222 31.442 70.222 70.223Zm0 0"/><path fill="none" stroke="#110f0d" stroke-miterlimit="10" stroke-width="3.998" d="m537.219 317.746 30.875-30.875 46.531 46.531 24.496-24.5 33.746 33.746m-104.773-55.777.172 89.16m70.82-65.261-.836 44.062m-23.625-21.43 23.625 21.43"/></svg>